<?xml version="1.0" encoding="utf-8"?>
<!-- Generator: Adobe Illustrator 21.0.2, SVG Export Plug-In . SVG Version: 6.00 Build 0)  -->
<svg version="1.1" id="Layer_1" xmlns="http://www.w3.org/2000/svg" xmlns:xlink="http://www.w3.org/1999/xlink" x="0px" y="0px"
	 viewBox="0 0 769 609" style="enable-background:new 0 0 769 609;" xml:space="preserve">
<style type="text/css">
	.st0{fill:#555555;}
</style>
<g>
	<path class="st0" d="M691.3,306.5v0.5c0,121.6-98.6,220.1-220.1,220.1c-56.8,0-108.6-21.5-147.7-56.9c-0.6-0.5-1.1-1-1.7-1.5
		c-37.9-35-63.4-83.1-69.4-137.2c-0.1-1.3-0.3-2.5-0.4-3.8c-0.6-6.8-1-13.8-1-20.8c0-7,0.3-13.9,1-20.8
		c5.4-57.3,32.7-108.3,73.5-144.3c33.9-30,77.2-49.6,124.8-54.1c5.9-0.5,11.8-0.9,17.7-0.9c0.9,0,1.7,0,2.6,0V24H87.6v63.9h164.5
		v40.1c-39.9,48.8-63.9,111.1-63.9,179.1c0,63.6,21,122.3,56.4,169.5c-14,29.3-43.9,49.6-78.6,49.6c-45.5,0-82.8-34.9-86.7-79.3
		H15.5C21.7,526.9,88.6,590,170.3,590c30,0,58-8.5,81.8-23.2c3.3-1.8,6.5-3.8,9.7-5.9c13.2-8.8,24.9-19.4,34.5-31.4
		c48.2,37.9,108.9,60.6,175,60.6c156.3,0,283-126.7,283-283v-0.5H691.3z M250.6,460.9l-0.3-0.2c0.1-0.4,0.2-0.8,0.3-1.3V460.9z"/>
</g>
<path d="M0.2,555.3l0.3,0.2V554C0.4,554.5,0.3,554.9,0.2,555.3z"/>
<path d="M0.5,554v1.5l-0.3-0.2C0.3,554.9,0.4,554.5,0.5,554z"/>
<path d="M0.2,555.3l0.3,0.2V554C0.4,554.5,0.3,554.9,0.2,555.3z"/>
</svg>
